<svg xmlns="http://www.w3.org/2000/svg" version="1.1" xmlns:xlink="http://www.w3.org/1999/xlink" xmlns:svgjs="http://svgjs.dev/svgjs" width="2000" height="1252" viewBox="0 0 2000 1252"><g transform="matrix(1,0,0,1,-1.2121212121212466,-2.01935483870966)"><svg viewBox="0 0 396 248" data-background-color="#ffffff" preserveAspectRatio="xMidYMid meet" height="1252" width="2000" xmlns="http://www.w3.org/2000/svg" xmlns:xlink="http://www.w3.org/1999/xlink"><g id="tight-bounds" transform="matrix(1,0,0,1,0.2400000000000091,0.4000000000000057)"><svg viewBox="0 0 395.52 247.2" height="247.2" width="395.52"><g><svg></svg></g><g><svg viewBox="0 0 395.52 247.2" height="247.2" width="395.52"><g transform="matrix(1,0,0,1,75.54432,97.97090327633558)"><svg viewBox="0 0 244.43135999999998 51.25819344732883" height="51.25819344732883" width="244.43135999999998"><g><svg viewBox="0 0 323.975796867519 67.93896686614926" height="51.25819344732883" width="244.43135999999998"><g transform="matrix(1,0,0,1,0,9.389538836059703)"><svg viewBox="0 0 244.43135999999998 49.15988919402985" height="49.15988919402985" width="244.43135999999998"><g id="textblocktransform"><svg viewBox="0 0 244.43135999999998 49.15988919402985" height="49.15988919402985" width="244.43135999999998" id="textblock"><g><svg viewBox="0 0 244.43135999999998 49.15988919402985" height="49.15988919402985" width="244.43135999999998"><g transform="matrix(1,0,0,1,0,0)"><svg width="244.43135999999998" viewBox="0.55 -37.15 267.96999999999997 53.9" height="49.15988919402985" data-palette-color="#af2baf"><path d="M11.35 7.35L11.35 7.35Q9.55 7.35 7.73 6.83 5.9 6.3 4.38 5.23 2.85 4.15 2 2.5L2 2.5Q1.2 1 0.88-0.7 0.55-2.4 0.55-4.1L0.55-4.1Q0.55-4.35 0.58-5.03 0.6-5.7 0.7-6.53 0.8-7.35 0.98-7.93 1.15-8.5 1.4-8.5L1.4-8.5Q1.65-8.5 1.73-7.85 1.8-7.2 1.85-7L1.85-7 1.85-5.95Q1.85-5.7 1.85-5.43 1.85-5.15 1.9-4.9L1.9-4.9Q2.15-3 2.83-1 3.5 1 4.67 2.68 5.85 4.35 7.53 5.38 9.2 6.4 11.45 6.4L11.45 6.4Q13.95 6.4 16.28 4.98 18.6 3.55 20.68 1.28 22.75-1 24.48-3.7 26.2-6.4 27.55-9 28.9-11.6 29.8-13.55L29.8-13.55Q31.1-16.5 32.35-19.55 33.6-22.6 34.45-25.65L34.45-25.65Q33.4-28 31.88-30.25 30.35-32.5 28.23-33.98 26.1-35.45 23.25-35.45L23.25-35.45Q20.8-35.45 18.82-34.13 16.85-32.8 15.65-30.7L15.65-30.7Q15.2-29.9 14.98-29.03 14.75-28.15 14.5-27.3L14.5-27.3Q14.45-27 14.38-26.7 14.3-26.4 14.15-26.1L14.15-26.1Q14.1-26 14-25.83 13.9-25.65 13.75-25.65L13.75-25.65Q13.5-25.65 13.43-26.15 13.35-26.65 13.35-26.75L13.35-26.75Q13.35-27.75 13.75-28.7 14.15-29.65 14.6-30.55L14.6-30.55Q15.5-32.3 17-33.8 18.5-35.3 20.4-36.23 22.3-37.15 24.3-37.15L24.3-37.15Q26.95-37.15 29.1-35.8 31.25-34.45 32.9-32.4 34.55-30.35 35.65-28.2L35.65-28.2Q35.95-28.4 36.43-28.75 36.9-29.1 37.15-29.1L37.15-29.1Q37.3-29.1 37.48-28.98 37.65-28.85 37.65-28.7L37.65-28.7Q37.65-28 37.43-27.05 37.2-26.1 36.95-25.4L36.95-25.4Q37.05-25.2 37.15-24.98 37.25-24.75 37.3-24.5L37.3-24.5Q39-20.4 40.65-16.28 42.3-12.15 44-8L44-8Q44.6-6.6 45.23-5.2 45.85-3.8 46.55-2.5L46.55-2.5Q47.15-6.1 48.18-9.65 49.2-13.2 50.35-16.7L50.35-16.7Q50.9-18.25 51.75-20.68 52.6-23.1 53.78-25.75 54.95-28.4 56.4-30.73 57.85-33.05 59.63-34.52 61.4-36 63.45-36L63.45-36Q64.2-36 65.13-35.73 66.05-35.45 66.45-34.8L66.45-34.8Q66.55-34.7 66.63-34.55 66.7-34.4 66.7-34.25L66.7-34.25Q66.7-34.1 66.6-34.1L66.6-34.1Q66.15-34.3 65.83-34.77 65.5-35.25 64.6-35.25L64.6-35.25Q63.65-35.25 62.6-34.65 61.55-34.05 60.68-33.2 59.8-32.35 59.25-31.6L59.25-31.6Q58.35-30.35 57.23-28 56.1-25.65 54.93-22.68 53.75-19.7 52.68-16.45 51.6-13.2 50.73-10.08 49.85-6.95 49.33-4.33 48.8-1.7 48.8 0L48.8 0Q48.8 0.3 48.83 0.6 48.85 0.9 48.9 1.15L48.9 1.15Q49.3 1.9 50.25 2.68 51.2 3.45 52.3 3.45L52.3 3.45Q53.35 3.45 53.95 2.83 54.55 2.2 55 1.58 55.45 0.95 56 0.95L56 0.95Q56.7 0.95 56.7 1.65L56.7 1.65Q56.7 2.7 55.7 3.35 54.7 4 53.43 4.3 52.15 4.6 51.4 4.6L51.4 4.6Q50.45 4.6 49.18 4.28 47.9 3.95 46.35 2.15L46.35 2.15Q44.75 0.25 43.6-2.4 42.45-5.05 41.55-7.35L41.55-7.35Q40.1-11.05 38.7-14.75 37.3-18.45 35.85-22.15L35.85-22.15Q33.85-16.85 31.5-11.65L31.5-11.65Q30.3-8.95 28.65-6.13 27-3.3 24.95-0.75 22.9 1.8 20.4 3.78 17.9 5.75 14.95 6.8L14.95 6.8Q14.1 7.1 13.18 7.23 12.25 7.35 11.35 7.35ZM80.75 15.05L80.75 15.05Q80.25 15.05 79.67 14.98 79.1 14.9 78.7 14.7L78.7 14.7Q78.5 14.6 78 14.3 77.5 14 77.5 13.75L77.5 13.75Q77.5 13.5 77.72 13.53 77.95 13.55 77.95 13.25L77.95 13.25Q77.95 12.9 77.75 12.48 77.55 12.05 77.55 11.55L77.55 11.55Q77.55 11.25 77.72 10.7 77.9 10.15 78.3 10.15L78.3 10.15Q78.4 10.15 78.4 10.35L78.4 10.35Q78.4 10.7 78.25 11.08 78.1 11.45 78.1 11.85L78.1 11.85Q78.1 12.4 78.67 12.98 79.25 13.55 80 13.9 80.75 14.25 81.25 14.25L81.25 14.25Q81.5 14.25 81.75 14.25 82 14.25 82.2 14.2L82.2 14.2Q84.25 13.85 85.87 12.3 87.5 10.75 88.75 8.45 90 6.15 90.9 3.6 91.8 1.05 92.45-1.33 93.1-3.7 93.5-5.4L93.5-5.4Q91.05-3 87.8-1.18 84.55 0.65 80.95 1.65 77.35 2.65 73.9 2.65L73.9 2.65Q68.45 2.65 65.1-0.1 61.75-2.85 61.75-8.6L61.75-8.6Q61.75-13 63.5-16.98 65.25-20.95 68.17-24.25 71.1-27.55 74.65-29.9L74.65-29.9Q72.7-30.15 70.7-30.4 68.7-30.65 66.75-30.65L66.75-30.65Q64.5-30.65 62.72-30.05 60.95-29.45 59.4-27.75L59.4-27.75Q58.95-27.25 58.7-26.85 58.45-26.45 58.45-25.75L58.45-25.75Q58.45-24.6 58.87-24.08 59.3-23.55 59.85-23.4 60.4-23.25 60.87-23.23 61.35-23.2 61.5-22.95L61.5-22.95Q61.45-22.8 61.15-22.73 60.85-22.65 60.65-22.65L60.65-22.65Q59.9-22.65 59.37-23 58.85-23.35 58.47-23.68 58.1-24 57.8-24L57.8-24Q57.7-24 57.62-23.9 57.55-23.8 57.4-23.8L57.4-23.8Q57-23.8 56.95-24.38 56.9-24.95 56.9-25.15L56.9-25.15Q56.9-25.7 57.35-26.4 57.8-27.1 58.15-27.5L58.15-27.5Q60.3-30.1 62.77-31.15 65.25-32.2 68.55-32.2L68.55-32.2Q70.7-32.2 72.8-31.93 74.9-31.65 77-31.3L77-31.3Q79.45-32.65 82.2-33.33 84.95-34 87.7-34L87.7-34Q89.3-34 91.05-33.68 92.8-33.35 94.32-32.6 95.85-31.85 96.8-30.55 97.75-29.25 97.75-27.3L97.75-27.3Q97.75-25.75 97.2-24.25L97.2-24.25Q97.2-24.05 97.12-23.93 97.05-23.8 96.95-23.65L96.95-23.65Q96.6-23 96.3-22.48 96-21.95 95.05-21.95L95.05-21.95Q94.4-21.95 94.4-22.65L94.4-22.65Q94.4-22.9 94.42-23.18 94.45-23.45 94.5-23.65L94.5-23.65Q90.5-25.85 85.82-27.33 81.15-28.8 76.65-29.6L76.65-29.6Q74.4-27.9 72.25-25.55 70.1-23.2 68.37-20.43 66.65-17.65 65.62-14.65 64.6-11.65 64.6-8.7L64.6-8.7Q64.6-5.35 66.1-3.1 67.6-0.85 70.15 0.25 72.7 1.35 75.9 1.35L75.9 1.35Q78.65 1.35 81.47 0.53 84.3-0.3 86.85-1.78 89.4-3.25 91.3-5.2L91.3-5.2Q92.95-6.85 94.3-8.8L94.3-8.8Q94.5-9.65 94.75-10.55 95-11.45 95.1-12.35L95.1-12.35Q94.65-12.35 94.2-12.33 93.75-12.3 93.35-12.3L93.35-12.3Q89.95-12.3 86.52-12.55 83.1-12.8 79.7-12.95L79.7-12.95Q79.45-12.95 79.15-12.98 78.85-13 78.6-13L78.6-13Q77.3-13 75.67-12.7 74.05-12.4 73.15-11.35L73.15-11.35Q72.7-10.85 72.47-10.18 72.25-9.5 71.95-8.9L71.95-8.9Q71.2-9.3 71.2-9.95L71.2-9.95Q71.2-10.45 71.9-11.05 72.6-11.65 73.42-12.18 74.25-12.7 74.65-12.9L74.65-12.9Q76.35-13.8 78.2-14.3 80.05-14.8 81.95-14.8L81.95-14.8Q85.6-14.8 89.2-14.53 92.8-14.25 96.4-14.25L96.4-14.25Q97.65-14.25 98.95-14.78 100.25-15.3 101.1-16.15L101.1-16.15Q101.2-16.25 101.35-16.25L101.35-16.25Q101.5-16.25 101.5-16.05L101.5-16.05Q101.5-15.75 100.92-15.25 100.35-14.75 99.67-14.33 99-13.9 98.75-13.7L98.75-13.7Q98.1-12.85 97.6-11.43 97.1-10 96.72-8.5 96.35-7 96.1-5.95L96.1-5.95Q95.45-3.4 94.62-0.43 93.8 2.55 92.57 5.45 91.35 8.35 89.52 10.65 87.7 12.95 85.05 14.1L85.05 14.1Q84.15 14.5 83.3 14.7 82.45 14.9 81.45 15L81.45 15Q81.25 15.05 81.07 15.05 80.9 15.05 80.75 15.05ZM94.9-25.85L94.9-25.85Q94.95-26.15 94.97-26.45 95-26.75 95-27.1L95-27.1Q95-29.35 93.75-30.63 92.5-31.9 90.65-32.43 88.8-32.95 86.9-32.95L86.9-32.95Q84.9-32.95 82.75-32.48 80.6-32 78.8-31L78.8-31Q82.95-30.2 87-28.9 91.05-27.6 94.9-25.85ZM126.74 2.65L126.74 2.65Q121.24 2.65 117.92-0.1 114.59-2.85 114.59-8.6L114.59-8.6Q114.59-13 116.34-16.98 118.09-20.95 121.02-24.25 123.94-27.55 127.49-29.9L127.49-29.9Q125.54-30.15 123.54-30.4 121.54-30.65 119.59-30.65L119.59-30.65Q117.34-30.65 115.57-30.05 113.79-29.45 112.24-27.75L112.24-27.75Q111.79-27.25 111.54-26.85 111.29-26.45 111.29-25.75L111.29-25.75Q111.29-24.6 111.69-24.1 112.09-23.6 112.64-23.45 113.19-23.3 113.69-23.25 114.19-23.2 114.34-22.95L114.34-22.95Q114.29-22.8 113.99-22.73 113.69-22.65 113.49-22.65L113.49-22.65Q112.74-22.65 112.22-23 111.69-23.35 111.32-23.68 110.94-24 110.64-24L110.64-24Q110.54-24 110.47-23.9 110.39-23.8 110.24-23.8L110.24-23.8Q109.84-23.8 109.79-24.38 109.74-24.95 109.74-25.15L109.74-25.15Q109.74-25.7 110.19-26.4 110.64-27.1 110.99-27.5L110.99-27.5Q113.14-30.1 115.62-31.15 118.09-32.2 121.39-32.2L121.39-32.2Q123.54-32.2 125.64-31.93 127.74-31.65 129.84-31.3L129.84-31.3Q132.29-32.65 135.04-33.33 137.79-34 140.54-34L140.54-34Q142.14-34 143.89-33.68 145.64-33.35 147.17-32.6 148.69-31.85 149.64-30.55 150.59-29.25 150.59-27.3L150.59-27.3Q150.59-25.75 150.04-24.25L150.04-24.25Q150.04-24.05 149.97-23.93 149.89-23.8 149.79-23.65L149.79-23.65Q149.44-23 149.12-22.48 148.79-21.95 147.89-21.95L147.89-21.95Q147.24-21.95 147.24-22.65L147.24-22.65Q147.24-22.9 147.27-23.18 147.29-23.45 147.34-23.65L147.34-23.65Q143.34-25.85 138.67-27.33 133.99-28.8 129.49-29.6L129.49-29.6Q127.19-27.9 125.04-25.55 122.89-23.2 121.17-20.43 119.44-17.65 118.44-14.65 117.44-11.65 117.44-8.7L117.44-8.7Q117.44-5.35 118.94-3.1 120.44-0.85 122.99 0.25 125.54 1.35 128.74 1.35L128.74 1.35Q131.49 1.35 134.32 0.53 137.14-0.3 139.69-1.78 142.24-3.25 144.14-5.2L144.14-5.2Q145.49-6.6 146.92-8.5 148.34-10.4 149.09-12.25L149.09-12.25Q149.09-12.3 149.22-12.55 149.34-12.8 149.39-12.8L149.39-12.8Q149.49-12.8 149.52-12.5 149.54-12.2 149.54-12.15L149.54-12.15Q149.54-11.9 149.52-11.03 149.49-10.15 149.39-9.9L149.39-9.9Q148.69-7.7 146.72-5.73 144.74-3.75 142.17-2.15 139.59-0.55 136.92 0.55 134.24 1.65 132.09 2.1L132.09 2.1Q130.79 2.35 129.44 2.5 128.09 2.65 126.74 2.65ZM147.74-25.85L147.74-25.85Q147.79-26.15 147.82-26.45 147.84-26.75 147.84-27.1L147.84-27.1Q147.84-29.35 146.59-30.63 145.34-31.9 143.49-32.43 141.64-32.95 139.74-32.95L139.74-32.95Q137.74-32.95 135.59-32.48 133.44-32 131.64-31L131.64-31Q135.79-30.2 139.84-28.9 143.89-27.6 147.74-25.85ZM150.79 0.25L150.79 0.25Q149.84 0.25 149.47-0.28 149.09-0.8 149.09-2.15L149.09-2.15Q149.09-4.1 149.59-6.25 150.09-8.4 150.94-10.43 151.79-12.45 152.84-13.95L152.84-13.95Q153.64-15.05 154.99-16 156.34-16.95 157.89-17.55 159.44-18.15 160.79-18.15L160.79-18.15Q161.24-18.15 161.89-18.03 162.54-17.9 162.89-17.6L162.89-17.6Q163.14-17.4 163.22-17.05 163.29-16.7 163.29-16.4L163.29-16.4Q163.29-15.1 162.87-13.38 162.44-11.65 161.74-9.85 161.04-8.05 160.24-6.48 159.44-4.9 158.64-3.85L158.64-3.85Q158.19-3.25 157.19-2.53 156.19-1.8 155.02-1.18 153.84-0.55 152.69-0.15 151.54 0.25 150.79 0.25ZM152.14-1.15L152.14-1.15Q154.49-1.65 155.94-3.4L155.94-3.4Q157.09-4.75 158.09-6.95 159.09-9.15 159.72-11.5 160.34-13.85 160.34-15.6L160.34-15.6Q160.34-15.75 160.32-16.1 160.29-16.45 160.14-16.5L160.14-16.5Q159.54-16.8 158.79-16.8L158.79-16.8Q158.29-16.8 157.49-16.48 156.69-16.15 156.29-15.75L156.29-15.75Q156.04-15.5 155.82-15.08 155.59-14.65 155.39-14.35L155.39-14.35Q154.44-12.85 153.57-10.85 152.69-8.85 152.14-6.75 151.59-4.65 151.59-2.8L151.59-2.8Q151.59-2.2 151.72-1.73 151.84-1.25 152.14-1.15ZM161.34 0.65L161.34 0.65Q161.29 0.65 161.29 0.6L161.29 0.6Q161.29 0.4 161.46 0.2 161.64 0 161.69-0.1L161.69-0.1Q162.04-0.65 162.51-1.98 162.99-3.3 163.46-4.98 163.94-6.65 164.36-8.38 164.79-10.1 165.14-11.55 165.49-13 165.64-13.75L165.64-13.75Q165.74-14.15 165.84-14.8 165.94-15.45 166.14-16.1 166.34-16.75 166.59-16.95L166.59-16.95Q167.04-17.35 167.94-17.65 168.84-17.95 169.79-18.13 170.74-18.3 171.29-18.3L171.29-18.3Q171.59-18.3 171.74-18L171.74-18 171.79-17.85Q171.74-17.7 171.64-17.73 171.54-17.75 171.44-17.75L171.44-17.75Q170.34-17.75 169.51-16.53 168.69-15.3 168.06-13.53 167.44-11.75 167.06-10.1 166.69-8.45 166.49-7.6L166.49-7.6Q168.09-10.3 170.16-12.85 172.24-15.4 174.99-16.95L174.99-16.95Q175.39-17.15 175.81-17.38 176.24-17.6 176.64-17.6L176.64-17.6Q177.29-17.6 177.44-17.03 177.59-16.45 177.59-15.95L177.59-15.95Q177.59-15.3 177.21-14.13 176.84-12.95 176.36-11.8 175.89-10.65 175.59-10L175.59-10Q177.14-12.05 179.04-13.88 180.94-15.7 183.24-16.95L183.24-16.95Q183.59-17.15 184.04-17.38 184.49-17.6 184.89-17.6L184.89-17.6Q185.54-17.6 185.66-17.03 185.79-16.45 185.79-15.95L185.79-15.95Q185.79-15.2 185.36-14.08 184.94-12.95 184.41-11.83 183.89-10.7 183.59-9.95L183.59-9.95Q183.24-9.15 182.91-8.3 182.59-7.45 182.34-6.6L182.34-6.6Q182.14-5.8 181.89-4.83 181.64-3.85 181.64-3L181.64-3Q181.64-2.65 181.76-2.2 181.89-1.75 182.34-1.75L182.34-1.75Q182.59-1.75 182.76-1.85 182.94-1.95 183.14-2.05L183.14-2.05Q184.29-2.7 185.36-3.83 186.44-4.95 187.34-6.28 188.24-7.6 188.84-8.7L188.84-8.7Q188.89-8.65 188.89-8.5L188.89-8.5Q188.89-8.2 188.54-7.63 188.19-7.05 187.74-6.4 187.29-5.75 186.91-5.25 186.54-4.75 186.54-4.65L186.54-4.65Q186.49-4.3 186.39-4.08 186.29-3.85 186.09-3.5L186.09-3.5Q185.49-2.9 184.36-2.02 183.24-1.15 182.04-0.48 180.84 0.2 179.94 0.2L179.94 0.2Q179.19 0.2 178.94-0.33 178.69-0.85 178.69-1.5L178.69-1.5Q178.69-2.8 179.29-4.73 179.89-6.65 180.64-8.6 181.39-10.55 181.84-11.8L181.84-11.8Q181.99-12.2 182.31-13.1 182.64-14 182.64-14.35L182.64-14.35Q182.64-14.65 182.54-14.95 182.44-15.25 182.04-15.25L182.04-15.25Q181.24-15.25 180.11-14.2 178.99-13.15 177.84-11.68 176.69-10.2 175.81-8.83 174.94-7.45 174.59-6.8L174.59-6.8Q174.09-5.8 173.64-4.73 173.19-3.65 172.99-2.55L172.99-2.55Q172.54-2.55 171.81-1.95 171.09-1.35 170.46-0.78 169.84-0.2 169.69-0.2L169.69-0.2Q169.59-0.2 169.64-0.33 169.69-0.45 169.69-0.55L169.69-0.55 169.74-0.9Q169.84-1.65 170.06-2.38 170.29-3.1 170.49-3.75L170.49-3.75Q170.74-4.6 171.06-5.48 171.39-6.35 171.74-7.15L171.74-7.15Q171.89-7.55 172.31-8.58 172.74-9.6 173.24-10.85 173.74-12.1 174.09-13.08 174.44-14.05 174.44-14.35L174.44-14.35Q174.44-14.6 174.36-14.9 174.29-15.2 173.89-15.2L173.89-15.2Q173.39-15.2 172.61-14.55 171.84-13.9 171.44-13.5L171.44-13.5Q169.29-11.15 167.71-8.18 166.14-5.2 165.14-2.15L165.14-2.15Q164.99-1.75 164.96-1.6 164.94-1.45 164.54-1.15L164.54-1.15Q164.39-1.1 163.61-0.65 162.84-0.2 162.11 0.23 161.39 0.65 161.34 0.65ZM171.19 16.75L171.19 16.75Q170.89 16.75 170.06 16.5 169.24 16.25 168.51 15.85 167.79 15.45 167.79 15.05L167.79 15.05Q167.79 14.9 167.99 14.9L167.99 14.9Q168.19 15 168.39 15L168.39 15Q168.59 15 168.64 14.95L168.64 14.95Q168.59 14.8 168.51 14.65 168.44 14.5 168.44 14.3L168.44 14.3Q168.44 14.05 168.64 14L168.64 14Q168.49 13.7 168.36 13.43 168.24 13.15 168.04 12.85L168.04 12.85Q167.94 12.65 167.59 12.23 167.24 11.8 167.24 11.6L167.24 11.6Q167.24 11.4 167.34 11.2L167.34 11.2Q168.39 12.6 169.14 13.45 169.89 14.3 170.96 14.68 172.04 15.05 173.94 15.05L173.94 15.05Q175.84 15.05 177.44 13.88 179.04 12.7 180.41 10.8 181.79 8.9 182.86 6.7 183.94 4.5 184.74 2.45 185.54 0.4 186.04-1L186.04-1Q187.04-3.9 187.89-6.85 188.74-9.8 189.54-12.75L189.54-12.75Q189.94-14.35 190.34-16.03 190.74-17.7 191.29-19.2L191.29-19.2Q191.64-20.1 192.86-20.88 194.09-21.65 195.51-22.13 196.94-22.6 197.84-22.6L197.84-22.6Q197.99-22.6 198.11-22.43 198.24-22.25 198.24-22.15L198.24-22.15Q198.24-21.75 197.89-21.65L197.89-21.65Q197.74-21.8 197.69-21.98 197.64-22.15 197.39-22.15L197.39-22.15Q196.79-22.15 195.94-21.35 195.09-20.55 194.39-19.58 193.69-18.6 193.49-18.05L193.49-18.05Q192.69-15.65 191.99-13.2 191.29-10.75 190.59-8.3L190.59-8.3Q190.99-8.9 191.91-10 192.84-11.1 194.01-12.4 195.19-13.7 196.44-14.9 197.69-16.1 198.76-16.85 199.84-17.6 200.54-17.6L200.54-17.6Q201.09-17.6 201.21-16.78 201.34-15.95 201.34-15.55L201.34-15.55Q201.34-13.25 200.44-10.5 199.54-7.75 198.09-5.28 196.64-2.8 194.94-1.25L194.94-1.25Q193.79-0.15 192.54 0.23 191.29 0.6 189.69 0.6L189.69 0.6Q189.24 0.6 188.71 0.53 188.19 0.45 187.89 0.2L187.89 0.2Q186.89 2.75 185.34 5.63 183.79 8.5 181.69 11.03 179.59 13.55 176.96 15.15 174.34 16.75 171.19 16.75ZM190.39-0.4L190.39-0.4Q191.34-0.4 192.31-1.2 193.29-2 193.84-2.65L193.84-2.65Q194.59-3.5 195.41-4.93 196.24-6.35 196.96-7.98 197.69-9.6 198.14-11.15 198.59-12.7 198.59-13.8L198.59-13.8 198.59-14Q198.59-14.2 198.54-14.38 198.49-14.55 198.29-14.55L198.29-14.55Q197.84-14.55 196.86-13.68 195.89-12.8 194.79-11.6 193.69-10.4 192.76-9.33 191.84-8.25 191.54-7.85L191.54-7.85Q191.14-7.35 190.76-6.8 190.39-6.25 190.09-5.7L190.09-5.7Q189.74-5 189.31-3.9 188.89-2.8 188.89-2L188.89-2Q188.89-1.35 189.31-0.88 189.74-0.4 190.39-0.4ZM203.33 0.25L203.33 0.25Q202.38 0.25 202.01-0.28 201.63-0.8 201.63-2.15L201.63-2.15Q201.63-4.1 202.13-6.25 202.63-8.4 203.48-10.43 204.33-12.45 205.38-13.95L205.38-13.95Q206.18-15.05 207.53-16 208.88-16.95 210.43-17.55 211.98-18.15 213.33-18.15L213.33-18.15Q213.78-18.15 214.43-18.03 215.08-17.9 215.43-17.6L215.43-17.6Q215.68-17.4 215.76-17.05 215.83-16.7 215.83-16.4L215.83-16.4Q215.83-15.1 215.41-13.38 214.98-11.65 214.28-9.85 213.58-8.05 212.78-6.48 211.98-4.9 211.18-3.85L211.18-3.85Q210.73-3.25 209.73-2.53 208.73-1.8 207.56-1.18 206.38-0.55 205.23-0.15 204.08 0.25 203.33 0.25ZM204.68-1.15L204.68-1.15Q207.03-1.65 208.48-3.4L208.48-3.4Q209.63-4.75 210.63-6.95 211.63-9.15 212.26-11.5 212.88-13.85 212.88-15.6L212.88-15.6Q212.88-15.75 212.86-16.1 212.83-16.45 212.68-16.5L212.68-16.5Q212.08-16.8 211.33-16.8L211.33-16.8Q210.83-16.8 210.03-16.48 209.23-16.15 208.83-15.75L208.83-15.75Q208.58-15.5 208.36-15.08 208.13-14.65 207.93-14.35L207.93-14.35Q206.98-12.85 206.11-10.85 205.23-8.85 204.68-6.75 204.13-4.65 204.13-2.8L204.13-2.8Q204.13-2.2 204.26-1.73 204.38-1.25 204.68-1.15ZM213.88 0.65L213.88 0.65Q213.83 0.65 213.83 0.6L213.83 0.6Q213.83 0.4 214.01 0.2 214.18 0 214.23-0.1L214.23-0.1Q214.58-0.65 215.06-1.98 215.53-3.3 216.01-4.98 216.48-6.65 216.91-8.38 217.33-10.1 217.68-11.55 218.03-13 218.18-13.75L218.18-13.75Q218.28-14.15 218.38-14.8 218.48-15.45 218.68-16.1 218.88-16.75 219.13-16.95L219.13-16.95Q219.63-17.35 220.51-17.65 221.38-17.95 222.33-18.13 223.28-18.3 223.88-18.3L223.88-18.3Q223.98-18.3 224.13-18.2 224.28-18.1 224.33-18L224.33-18 224.33-17.85Q224.33-17.7 224.23-17.73 224.13-17.75 224.03-17.75L224.03-17.75Q222.93-17.75 222.08-16.53 221.23-15.3 220.63-13.53 220.03-11.75 219.63-10.1 219.23-8.45 219.03-7.6L219.03-7.6Q220.63-10.35 222.71-12.88 224.78-15.4 227.58-16.95L227.58-16.95Q227.93-17.15 228.38-17.38 228.83-17.6 229.18-17.6L229.18-17.6Q229.83-17.6 229.98-17.03 230.13-16.45 230.13-15.95L230.13-15.95Q230.13-15.3 229.68-14.05 229.23-12.8 228.66-11.58 228.08-10.35 227.78-9.65L227.78-9.65Q227.48-8.85 227.08-7.6 226.68-6.35 226.38-5.1 226.08-3.85 226.08-3L226.08-3Q226.08-2.65 226.18-2.2 226.28-1.75 226.73-1.75L226.73-1.75Q226.98-1.75 227.16-1.85 227.33-1.95 227.53-2.05L227.53-2.05Q228.68-2.7 229.76-3.83 230.83-4.95 231.73-6.28 232.63-7.6 233.23-8.7L233.23-8.7Q233.28-8.65 233.28-8.5L233.28-8.5Q233.28-8.2 232.93-7.63 232.58-7.05 232.13-6.4 231.68-5.75 231.31-5.25 230.93-4.75 230.93-4.65L230.93-4.65Q230.88-4.3 230.78-4.08 230.68-3.85 230.53-3.5L230.53-3.5Q229.93-2.9 228.81-2.02 227.68-1.15 226.51-0.48 225.33 0.2 224.43 0.2L224.43 0.2Q223.63 0.2 223.36-0.43 223.08-1.05 223.08-1.75L223.08-1.75Q223.08-3.1 223.63-4.98 224.18-6.85 224.93-8.72 225.68-10.6 226.18-11.9L226.18-11.9Q226.33-12.3 226.66-13.15 226.98-14 226.98-14.35L226.98-14.35Q226.98-14.6 226.91-14.9 226.83-15.2 226.43-15.2L226.43-15.2Q225.93-15.2 225.16-14.55 224.38-13.9 223.98-13.5L223.98-13.5Q221.83-11.1 220.28-8.18 218.73-5.25 217.68-2.15L217.68-2.15Q217.53-1.75 217.51-1.58 217.48-1.4 217.08-1.15L217.08-1.15Q216.93-1.05 216.16-0.6 215.38-0.15 214.66 0.25 213.93 0.65 213.88 0.65ZM240.68-21.5L240.68-21.5Q240.28-21.5 239.45-21.83 238.63-22.15 238.63-22.65L238.63-22.65Q238.63-22.7 238.65-22.73 238.68-22.75 238.68-22.8L238.68-22.8Q238.93-23.3 239.8-23.4 240.68-23.5 241.13-23.7L241.13-23.7Q242.13-24.1 243.08-24.35 244.03-24.6 244.88-25.25L244.88-25.25Q245.08-25.15 245.08-25.05L245.08-25.05Q245.08-24.85 244.65-24.5 244.23-24.15 244.08-23.9L244.08-23.9Q243.88-23.6 243.2-23.03 242.53-22.45 241.78-21.98 241.03-21.5 240.68-21.5ZM232.23 0.15L232.23 0.15Q231.43 0.15 231.13-0.25 230.83-0.65 230.83-1.4L230.83-1.4Q230.83-3.05 231.5-5.4 232.18-7.75 233.03-10.18 233.88-12.6 234.38-14.5L234.38-14.5Q234.58-15.2 235.35-15.48 236.13-15.75 236.68-16.15L236.68-16.15Q237.48-16.7 238.38-17.07 239.28-17.45 240.28-17.45L240.28-17.45Q240.53-17.45 240.6-17.35 240.68-17.25 240.68-17.2L240.68-17.2Q240.68-16.9 240.33-16.9L240.33-16.9Q239.63-16.9 238.88-16.07 238.13-15.25 237.38-13.95 236.63-12.65 236.03-11.25 235.43-9.85 234.98-8.68 234.53-7.5 234.38-6.95L234.38-6.95Q234.13-6.15 233.88-5.08 233.63-4 233.63-3.1L233.63-3.1Q233.63-2.75 233.73-2.27 233.83-1.8 234.33-1.8L234.33-1.8Q234.68-1.8 235.08-2.05L235.08-2.05Q236.18-2.7 237.25-3.83 238.33-4.95 239.25-6.28 240.18-7.6 240.73-8.7L240.73-8.7Q240.83-8.65 240.83-8.5L240.83-8.5Q240.83-8.2 240.48-7.63 240.13-7.05 239.68-6.4 239.23-5.75 238.85-5.25 238.48-4.75 238.48-4.65L238.48-4.65Q238.43-4.25 238.33-4.08 238.23-3.9 238.03-3.5L238.03-3.5Q237.43-2.9 236.43-2.02 235.43-1.15 234.33-0.5 233.23 0.15 232.23 0.15ZM249.53 0.1L249.53 0.1Q248.03 0 246.53-0.03 245.03-0.05 243.53-0.05L243.53-0.05 238.68-0.05Q238.23-0.05 238.1-0.65 237.98-1.25 237.88-1.55L237.88-1.55Q238.93-3 240.53-4.63 242.13-6.25 244.78-9L244.78-9Q245.53-9.8 247.55-11.83 249.58-13.85 252.28-16.25L252.28-16.25Q251.93-16.3 251.53-16.3 251.13-16.3 250.73-16.3L250.73-16.3Q249.13-16.3 247.4-16.1 245.68-15.9 244.3-15.5 242.93-15.1 242.33-14.55L242.33-14.55Q242.28-14.5 242.03-14.28 241.78-14.05 241.63-14.05L241.63-14.05Q241.63-14.05 241.6-14.08 241.58-14.1 241.58-14.15L241.58-14.15Q241.58-14.25 241.75-14.48 241.93-14.7 241.98-14.75L241.98-14.75Q242.48-15.4 242.9-16.18 243.33-16.95 243.98-17.45L243.98-17.45Q245.58-17.3 247.18-17.28 248.78-17.25 250.38-17.25L250.38-17.25 252.93-17.25Q253.88-17.25 254.1-16.5 254.33-15.75 254.33-15.2L254.33-15.2Q252.23-13.4 250.2-11.58 248.18-9.75 246.13-7.85L246.13-7.85Q244.73-6.5 243.35-5.03 241.98-3.55 241.08-1.95L241.08-1.95Q241.98-1.7 244.28-1.7L244.28-1.7Q245.18-1.7 246.13-1.78 247.08-1.85 247.83-2L247.83-2Q249.28-2.3 250.43-2.98 251.58-3.65 252.78-5.1L252.78-5.1Q252.83-5.2 253.05-5.43 253.28-5.65 253.38-5.65L253.38-5.65Q253.58-5.65 253.58-5.5L253.58-5.5Q253.58-5.35 253.45-5.15 253.33-4.95 253.18-4.75L253.18-4.75Q252.68-4.15 252.03-3.13 251.38-2.1 250.7-1.2 250.03-0.3 249.53 0.1ZM257.02 0.2L257.02 0.2Q254.12 0.2 254.12-2.75L254.12-2.75Q254.12-4.95 255.02-7.48 255.92-10 257.37-12.33 258.82-14.65 260.42-16.1L260.42-16.1Q262.32-17.75 264.87-17.75L264.87-17.75Q265.47-17.75 266.35-17.6 267.22-17.45 267.87-17.03 268.52-16.6 268.52-15.8L268.52-15.8Q268.52-14.65 267.67-13.18 266.82-11.7 266.12-10.8L266.12-10.8Q266.37-10.75 266.75-10.65 267.12-10.55 267.12-10.25L267.12-10.25Q267.12-10.1 266.87-10.1L266.87-10.1Q266.42-10.1 265.97-10.2 265.52-10.3 265.07-10.3L265.07-10.3Q263.37-10.3 261.6-9.8 259.82-9.3 258.22-8.75L258.22-8.75Q257.72-7.55 257.35-6.1 256.97-4.65 256.97-3.35L256.97-3.35Q256.97-2.4 257.35-1.65 257.72-0.9 258.82-0.9L258.82-0.9Q260.17-0.9 261.6-1.68 263.02-2.45 264.35-3.68 265.67-4.9 266.72-6.25 267.77-7.6 268.37-8.7L268.37-8.7Q268.42-8.65 268.42-8.5L268.42-8.5Q268.42-8.05 267.87-7.28 267.32-6.5 266.75-5.75 266.17-5 266.07-4.65L266.07-4.65Q266.02-4.3 265.9-4.05 265.77-3.8 265.62-3.5L265.62-3.5Q264.77-2.65 263.2-1.78 261.62-0.9 259.95-0.35 258.27 0.2 257.02 0.2ZM258.92-10.35L258.92-10.35Q260.22-10.6 261.5-10.75 262.77-10.9 264.07-10.9L264.07-10.9Q264.47-10.9 264.87-10.9 265.27-10.9 265.67-10.85L265.67-10.85Q266.07-11.7 266.35-12.7 266.62-13.7 266.62-14.65L266.62-14.65Q266.62-15.4 266.32-16.18 266.02-16.95 265.02-16.95L265.02-16.95Q264.07-16.95 263.1-16.15 262.12-15.35 261.52-14.7L261.52-14.7Q260.72-13.75 260.1-12.63 259.47-11.5 258.92-10.35Z" opacity="1" transform="matrix(1,0,0,1,0,0)" fill="#af2baf" class="wordmark-text-0" data-fill-palette-color="primary" id="text-0"></path></svg></g></svg></g></svg></g></svg></g><g transform="matrix(1,0,0,1,256.03683000136976,0)"><svg viewBox="0 0 67.93896686614926 67.93896686614926" height="67.93896686614926" width="67.93896686614926"><g data-palette-color="#b63cb8"><rect width="18.569984276747466" height="67.93896686614926" fill="#b63cb8" stroke="transparent" data-fill-palette-color="accent" x="0" fill-opacity="1"></rect><rect width="18.569984276747466" height="67.93896686614926" fill="#b63cb8" stroke="transparent" data-fill-palette-color="accent" x="22.64632228871642" fill-opacity="0.75"></rect><rect width="18.569984276747466" height="67.93896686614926" fill="#b63cb8" stroke="transparent" data-fill-palette-color="accent" x="45.29264457743284" fill-opacity="0.5"></rect></g></svg></g></svg></g></svg></g><path d="M201.969 91.971L201.969 29.116 390.937 29.116 390.937 218.084 201.969 218.084 201.969 155.229 205.314 155.229 205.314 214.739 387.592 214.739 387.592 32.461 205.314 32.461 205.314 91.971Z" fill="#919591" stroke="transparent" data-fill-palette-color="tertiary"></path></svg></g><defs></defs></svg><rect width="395.52" height="247.2" fill="none" stroke="none" visibility="hidden"></rect></g></svg></g></svg>